<?xml version="1.0" encoding="UTF-8"?><svg id="Capa_1" xmlns="http://www.w3.org/2000/svg" viewBox="0 0 342.98 294.66"><defs><style>.cls-1{fill:#000;}.cls-1,.cls-2{stroke-width:0px;}.cls-2{fill:#fff;}</style></defs><path class="cls-1" d="M41.29,278.96c-7.74,0-13.47-5.9-13.47-13.5s5.73-13.54,13.47-13.54c6.11,0,11.04,3.79,12.78,9.51h-2.78c-1.6-4.17-5.14-7.01-10-7.01-6.28,0-10.76,4.69-10.76,11.04s4.48,11,10.76,11c4.93,0,8.57-2.95,10.07-7.29h2.71c-1.77,5.87-6.56,9.79-12.78,9.79Z"/><path class="cls-1" d="M77.75,278.96c-7.78,0-13.54-5.9-13.54-13.5s5.76-13.54,13.54-13.54,13.54,5.9,13.54,13.54-5.73,13.5-13.54,13.5ZM77.75,276.46c6.32,0,10.83-4.69,10.83-11s-4.51-11.04-10.83-11.04-10.83,4.69-10.83,11.04,4.51,11,10.83,11Z"/><path class="cls-1" d="M102.66,278.44v-26.04h5.8l11.04,23.61h1.56v-23.61h2.6v26.04h-5.8l-11.04-23.61h-1.56v23.61h-2.6Z"/><path class="cls-1" d="M134.4,278.44v-2.57h10.24c4.65,0,6.6-2.67,6.6-5.55s-1.42-5.28-6.6-5.28h-3.12c-3.99,0-6.94-2.53-6.94-6.21s2.95-6.42,7.15-6.42h10.55v2.57h-10.69c-2.92,0-4.3,1.74-4.3,3.85,0,1.98,1.39,3.64,4.3,3.64h3.05c6.56,0,9.3,3.64,9.3,7.81s-2.81,8.16-9.48,8.16h-10.07Z"/><path class="cls-1" d="M173.51,278.96c-5.8,0-9.51-3.85-9.51-10.17v-16.38h2.6v16.63c0,4.44,2.5,7.43,6.91,7.43s6.91-2.98,6.91-7.43v-16.63h2.6v16.38c0,6.32-3.68,10.17-9.51,10.17Z"/><path class="cls-1" d="M205.74,278.44h-10.76v-26.04h2.6v23.61h8.16v2.43Z"/><path class="cls-1" d="M217.64,278.44v-23.61h-6.7v-2.43h16.04v2.43h-6.73v23.61h-2.6Z"/><path class="cls-1" d="M237.73,278.44v-26.04h2.6v26.04h-2.6Z"/><path class="cls-1" d="M253.17,278.44v-26.04h5.8l11.04,23.61h1.56v-23.61h2.6v26.04h-5.8l-11.04-23.61h-1.56v23.61h-2.6Z"/><path class="cls-1" d="M299.01,278.96c-7.74,0-13.47-5.9-13.47-13.5s5.66-13.54,13.33-13.54c6.01,0,11.14,3.79,12.88,9.51h-2.74c-1.6-4.17-5.35-7.01-10.14-7.01-6.21,0-10.62,4.69-10.62,11.04s4.48,11,10.76,11c5.55,0,9.86-3.82,10.52-9.02h-8.64v-2.43h11.28v1.04c0,7.19-5.8,12.91-13.16,12.91Z"/><polygon class="cls-1" points="322.28 77.66 322.28 233.79 20.7 233.79 20.7 15.7 270.24 15.7 270.24 42.96 299.97 42.96 299.97 77.66 322.28 77.66"/><path class="cls-2" d="M73.01,87.28h-8.17v19.19h-16.89v-59.47h28.47c13.88,0,21.65,8.41,21.65,20.62,0,7.45-3.17,13.4-9.04,16.73l9.04,22.13h-17.68l-7.37-19.19ZM64.84,60.39v15.39h7.85c5.79,0,7.93-3.65,7.93-7.77s-2.14-7.61-7.85-7.61h-7.93Z"/><path class="cls-2" d="M150.25,93.54h-15.38l-2.38,12.93h-17.29l13.72-59.47h27.36l13.64,59.47h-17.29l-2.38-12.93ZM137.17,81.01h10.78l-3.49-19.11h-3.81l-3.49,19.11Z"/><path class="cls-2" d="M189.35,106.47v-14.59l22.92-28.31v-3.01h-22.28v-13.56h40.84v16.57l-21.33,26.33v3.01h21.81v13.56h-41.95Z"/><path class="cls-2" d="M49.34,193.95v-59.47h16.89c20.14,0,31.88,12.13,31.88,29.74s-11.82,29.74-31.8,29.74h-16.97ZM55.29,140.03v48.37h10.94c18.56,0,25.85-10.94,25.85-24.19s-7.3-24.19-25.93-24.19h-10.86Z"/><path class="cls-2" d="M109.62,144.79v-10.31h6.19v10.31h-6.19ZM109.62,193.95v-40.44h6.19v40.44h-6.19Z"/><path class="cls-2" d="M157.43,209.81h-23.47v-5.55h23.87c2.62,0,4.2-1.35,4.2-4.28v-12.21c-3.49,4.6-8.49,7.37-14.35,7.37-11.1,0-20.38-9.28-20.38-21.25s9.28-21.49,20.38-21.49c5.87,0,10.86,2.85,14.35,7.53v-6.42h6.19v46.78c0,5.55-3.41,9.52-10.79,9.52ZM147.68,189.27c6.26,0,11.66-3.73,14.35-8.72v-13.32c-2.85-5.16-8.09-8.96-14.35-8.96-7.77,0-14.04,6.5-14.04,15.62s6.26,15.39,14.04,15.39Z"/><path class="cls-2" d="M180.99,144.79v-10.31h6.19v10.31h-6.19ZM180.99,193.95v-40.44h6.19v40.44h-6.19Z"/><path class="cls-2" d="M210.33,159.06v34.89h-6.19v-34.89h-8.49v-5.55h8.49v-11.42h6.19v11.42h8.56v5.55h-8.56Z"/><path class="cls-2" d="M259.73,187.61c-3.49,4.68-8.49,7.53-14.35,7.53-11.1,0-20.38-9.36-20.38-21.49s9.28-21.25,20.38-21.25c5.87,0,10.86,2.78,14.35,7.37v-6.26h6.19v40.44h-6.19v-6.34ZM245.38,189.27c6.26,0,11.5-3.81,14.35-8.96v-13.32c-2.7-5-8.09-8.72-14.35-8.72-7.77,0-14.04,6.42-14.04,15.39s6.26,15.62,14.04,15.62Z"/><path class="cls-2" d="M278.69,193.95v-59.47h6.19v59.47h-6.19Z"/><rect class="cls-2" x="242.97" y="92.54" width="14.87" height="14.87" transform="translate(150.43 350.38) rotate(-90)"/></svg>